name C:/MyDriveSym/Projects/mobilecap/Data\Session20210819_0002\mocap\ForceDataProcessed\walkingTS1_forces.mot
datacolumns 19
datarows 27
range 0.71450000 0.72750000
endheader 
time	R_ground_force_vx	R_ground_force_vy	R_ground_force_vz	R_ground_force_px	R_ground_force_py	R_ground_force_pz	R_ground_torque_x	R_ground_torque_y	R_ground_torque_z	L_ground_force_vx	L_ground_force_vy	L_ground_force_vz	L_ground_force_px	L_ground_force_py	L_ground_force_pz	L_ground_torque_x	L_ground_torque_y	L_ground_torque_z	
          0.71450000	         39.32515800	        145.66762400	         -2.37808000	          0.27662500	          0.00600000	         -0.11379700	          0.00000000	         -0.12374000	          0.00000000	        -76.94530500	        538.49169700	          0.04770000	          0.79152400	          0.00600000	         -0.22834600	          0.00000000	         -0.38838500	          0.00000000	
          0.71500000	         38.93465800	        143.95025500	         -2.33138800	          0.27685000	          0.00600000	         -0.11374500	          0.00000000	         -0.11867600	          0.00000000	        -77.03441900	        539.64230500	          0.12269300	          0.79170300	          0.00600000	         -0.22840700	          0.00000000	         -0.39741500	          0.00000000	
          0.71550000	         38.54496200	        142.24183600	         -2.28519700	          0.27707700	          0.00600000	         -0.11369200	          0.00000000	         -0.11366100	          0.00000000	        -77.12145800	        540.78612900	          0.19681300	          0.79188100	          0.00600000	         -0.22846800	          0.00000000	         -0.40644200	          0.00000000	
          0.71600000	         38.15610600	        140.54242400	         -2.23950500	          0.27730600	          0.00600000	         -0.11363800	          0.00000000	         -0.10869600	          0.00000000	        -77.20642500	        541.92316100	          0.27005600	          0.79206000	          0.00600000	         -0.22852900	          0.00000000	         -0.41546400	          0.00000000	
          0.71650000	         37.76812700	        138.85207500	         -2.19430900	          0.27753800	          0.00600000	         -0.11358300	          0.00000000	         -0.10378000	          0.00000000	        -77.28932200	        543.05339500	          0.34241600	          0.79223900	          0.00600000	         -0.22859000	          0.00000000	         -0.42448100	          0.00000000	
          0.71700000	         37.38105900	        137.17084300	         -2.14960800	          0.27777100	          0.00600000	         -0.11352700	          0.00000000	         -0.09891300	          0.00000000	        -77.37015400	        544.17682400	          0.41389200	          0.79241700	          0.00600000	         -0.22865200	          0.00000000	         -0.43349100	          0.00000000	
          0.71750000	         36.99493800	        135.49878100	         -2.10539800	          0.27800700	          0.00600000	         -0.11347100	          0.00000000	         -0.09409500	          0.00000000	        -77.44892400	        545.29343900	          0.48447900	          0.79259600	          0.00600000	         -0.22871300	          0.00000000	         -0.44249200	          0.00000000	
          0.71800000	         36.60979900	        133.83593800	         -2.06167700	          0.27824400	          0.00600000	         -0.11341300	          0.00000000	         -0.08932500	          0.00000000	        -77.52563500	        546.40323400	          0.55417500	          0.79277500	          0.00600000	         -0.22877400	          0.00000000	         -0.45148400	          0.00000000	
          0.71850000	         36.22567600	        132.18236600	         -2.01844300	          0.27848400	          0.00600000	         -0.11335400	          0.00000000	         -0.08460300	          0.00000000	        -77.60029100	        547.50620200	          0.62297600	          0.79295300	          0.00600000	         -0.22883500	          0.00000000	         -0.46046400	          0.00000000	
          0.71900000	         35.84260300	        130.53811200	         -1.97569400	          0.27872700	          0.00600000	         -0.11329400	          0.00000000	         -0.07992900	          0.00000000	        -77.67289600	        548.60233400	          0.69088000	          0.79313100	          0.00600000	         -0.22889700	          0.00000000	         -0.46943200	          0.00000000	
          0.71950000	         35.46061300	        128.90322500	         -1.93342700	          0.27897100	          0.00600000	         -0.11323300	          0.00000000	         -0.07530200	          0.00000000	        -77.74345500	        549.69162200	          0.75788500	          0.79331000	          0.00600000	         -0.22895800	          0.00000000	         -0.47838600	          0.00000000	
          0.72000000	         35.07974200	        127.27774900	         -1.89163900	          0.27921900	          0.00600000	         -0.11317100	          0.00000000	         -0.07072300	          0.00000000	        -77.81197000	        550.77405800	          0.82398900	          0.79348800	          0.00600000	         -0.22902000	          0.00000000	         -0.48732500	          0.00000000	
          0.72050000	         34.70002000	        125.66173000	         -1.85032700	          0.27946800	          0.00600000	         -0.11310800	          0.00000000	         -0.06619100	          0.00000000	        -77.87844600	        551.84963500	          0.88919000	          0.79366600	          0.00600000	         -0.22908100	          0.00000000	         -0.49624800	          0.00000000	
          0.72100000	         34.32148200	        124.05521100	         -1.80949000	          0.27972100	          0.00600000	         -0.11304400	          0.00000000	         -0.06170600	          0.00000000	        -77.94288800	        552.91834300	          0.95348700	          0.79384400	          0.00600000	         -0.22914300	          0.00000000	         -0.50515200	          0.00000000	
          0.72150000	         33.94416000	        122.45823300	         -1.76912400	          0.27997600	          0.00600000	         -0.11297800	          0.00000000	         -0.05726700	          0.00000000	        -78.00529900	        553.98017500	          1.01687900	          0.79402300	          0.00600000	         -0.22920400	          0.00000000	         -0.51403800	          0.00000000	
          0.72200000	         33.56808500	        120.87083800	         -1.72922700	          0.28023300	          0.00600000	         -0.11291100	          0.00000000	         -0.05287500	          0.00000000	        -78.06568500	        555.03512000	          1.07936400	          0.79420100	          0.00600000	         -0.22926600	          0.00000000	         -0.52290300	          0.00000000	
          0.72250000	         33.19328900	        119.29306500	         -1.68979600	          0.28049400	          0.00600000	         -0.11284300	          0.00000000	         -0.04852800	          0.00000000	        -78.12405000	        556.08317100	          1.14094400	          0.79437900	          0.00600000	         -0.22932700	          0.00000000	         -0.53174600	          0.00000000	
          0.72300000	         32.81980300	        117.72495200	         -1.65082700	          0.28075700	          0.00600000	         -0.11277400	          0.00000000	         -0.04422700	          0.00000000	        -78.18039900	        557.12431900	          1.20161600	          0.79455700	          0.00600000	         -0.22938900	          0.00000000	         -0.54056500	          0.00000000	
          0.72350000	         32.44765700	        116.16653500	         -1.61231900	          0.28102400	          0.00600000	         -0.11270300	          0.00000000	         -0.03997200	          0.00000000	        -78.23473700	        558.15855300	          1.26138300	          0.79473500	          0.00600000	         -0.22945100	          0.00000000	         -0.54936100	          0.00000000	
          0.72400000	         32.07688300	        114.61785100	         -1.57426800	          0.28129300	          0.00600000	         -0.11263100	          0.00000000	         -0.03576200	          0.00000000	        -78.28706800	        559.18586600	          1.32024300	          0.79491300	          0.00600000	         -0.22951300	          0.00000000	         -0.55813000	          0.00000000	
          0.72450000	         31.70751000	        113.07893400	         -1.53667100	          0.28156500	          0.00600000	         -0.11255800	          0.00000000	         -0.03159600	          0.00000000	        -78.33739800	        560.20624700	          1.37819800	          0.79509100	          0.00600000	         -0.22957500	          0.00000000	         -0.56687200	          0.00000000	
          0.72500000	         31.33956700	        111.54981600	         -1.49952500	          0.28184100	          0.00600000	         -0.11248300	          0.00000000	         -0.02747500	          0.00000000	        -78.38573100	        561.21968800	          1.43524800	          0.79526900	          0.00600000	         -0.22963700	          0.00000000	         -0.57558500	          0.00000000	
          0.72550000	         30.97308400	        110.03053000	         -1.46282800	          0.28211900	          0.00600000	         -0.11240600	          0.00000000	         -0.02339800	          0.00000000	        -78.43207300	        562.22617700	          1.49139600	          0.79544700	          0.00600000	         -0.22969900	          0.00000000	         -0.58426800	          0.00000000	
          0.72600000	         30.60808900	        108.52110600	         -1.42657600	          0.28240100	          0.00600000	         -0.11232800	          0.00000000	         -0.01936500	          0.00000000	        -78.47643000	        563.22570700	          1.54664200	          0.79562500	          0.00600000	         -0.22976100	          0.00000000	         -0.59292000	          0.00000000	
          0.72650000	         30.24461000	        107.02157400	         -1.39076700	          0.28268700	          0.00600000	         -0.11224900	          0.00000000	         -0.01537600	          0.00000000	        -78.51880700	        564.21826600	          1.60098800	          0.79580300	          0.00600000	         -0.22982300	          0.00000000	         -0.60154000	          0.00000000	
          0.72700000	         29.88267500	        105.53196100	         -1.35539600	          0.28297600	          0.00600000	         -0.11216800	          0.00000000	         -0.01143000	          0.00000000	        -78.55920800	        565.20384600	          1.65443700	          0.79598000	          0.00600000	         -0.22988500	          0.00000000	         -0.61012500	          0.00000000	
          0.72750000	         29.52231200	        104.05229500	         -1.32046100	          0.28326800	          0.00600000	         -0.11208500	          0.00000000	         -0.00752600	          0.00000000	        -78.59764100	        566.18243600	          1.70699200	          0.79615800	          0.00600000	         -0.22994700	          0.00000000	         -0.61867500	          0.00000000	
